<svg xmlns="http://www.w3.org/2000/svg" viewBox="0 0 500 500"><g id="freepik--background-simple--inject-31"><path d="M267.57,182c16.94,2.78,46-23.1,61.22-31.09,38.33-20.16,90-14.63,99.95,43.45,13.59,79.4-80.63,193.38-211.14,181.8C151.68,370.33,87.67,324.54,70.76,255,40,128.52,158.82,94.9,204.23,117.38,246.76,138.43,245.25,178.34,267.57,182Z" style="fill:#FE7473"></path><path d="M267.57,182c16.94,2.78,46-23.1,61.22-31.09,38.33-20.16,90-14.63,99.95,43.45,13.59,79.4-80.63,193.38-211.14,181.8C151.68,370.33,87.67,324.54,70.76,255,40,128.52,158.82,94.9,204.23,117.38,246.76,138.43,245.25,178.34,267.57,182Z" style="fill:#fff;opacity:0.9"></path></g><g id="freepik--Shadow--inject-31"><ellipse id="freepik--path--inject-31" cx="245.18" cy="412.39" rx="193.89" ry="11.32" style="fill:#f5f5f5"></ellipse></g><g id="freepik--Bookshelf--inject-31"><rect x="79.17" y="123.6" width="112.01" height="282.21" transform="translate(270.35 529.42) rotate(180)" style="fill:#FE7473"></rect><rect x="79.17" y="123.6" width="112.01" height="282.21" transform="translate(270.35 529.42) rotate(180)" style="opacity:0.2"></rect><path d="M58.53,121.13V408.29H79.17V121.13Z" style="fill:#FE7473"></path><path d="M190.19,121.13V408.29h20.64V121.13Z" style="fill:#FE7473"></path><path d="M190.19,121.13V408.29h20.64V121.13Z" style="fill:#fff;opacity:0.4"></path><rect x="123.81" y="137.62" width="4.76" height="39.95" style="fill:#FE7473"></rect><rect x="123.81" y="137.62" width="4.76" height="39.95" style="fill:#fff;opacity:0.1"></rect><rect x="119.04" y="137.62" width="4.76" height="39.95" style="fill:#FE7473"></rect><rect x="119.04" y="137.62" width="4.76" height="39.95" style="fill:#fff;opacity:0.4"></rect><rect x="128.57" y="140.43" width="9.52" height="37.15" style="fill:#FE7473"></rect><rect x="128.57" y="140.43" width="9.52" height="37.15" style="fill:#fff;opacity:0.6000000000000001"></rect><rect x="142.85" y="137.62" width="6.15" height="39.95" style="fill:#FE7473"></rect><rect x="138.09" y="137.62" width="4.76" height="39.95" style="fill:#FE7473"></rect><rect x="138.09" y="137.62" width="4.76" height="39.95" style="fill:#fff;opacity:0.7000000000000001"></rect><rect x="178.96" y="137.62" width="6.15" height="39.95" style="fill:#FE7473"></rect><rect x="178.96" y="137.62" width="6.15" height="39.95" style="fill:#fff;opacity:0.7000000000000001"></rect><rect x="174.2" y="137.62" width="4.76" height="39.95" style="fill:#FE7473"></rect><rect x="174.2" y="137.62" width="4.76" height="39.95" style="fill:#fff;opacity:0.6000000000000001"></rect><rect x="158.52" y="137.62" width="6.15" height="39.95" style="fill:#FE7473"></rect><rect x="158.52" y="137.62" width="6.15" height="39.95" style="fill:#fff;opacity:0.6000000000000001"></rect><rect x="153.76" y="137.62" width="4.76" height="39.95" style="fill:#FE7473"></rect><rect x="153.76" y="137.62" width="4.76" height="39.95" style="opacity:0.1"></rect><rect x="185.11" y="138.56" width="9.52" height="39.01" style="fill:#FE7473"></rect><rect x="185.11" y="138.56" width="9.52" height="39.01" style="fill:#fff;opacity:0.1"></rect><rect x="194.64" y="138.56" width="4.76" height="39.01" style="fill:#FE7473"></rect><rect x="194.64" y="138.56" width="4.76" height="39.01" style="fill:#fff;opacity:0.6000000000000001"></rect><rect x="164.68" y="138.56" width="6.35" height="39.01" style="fill:#FE7473"></rect><rect x="164.68" y="138.56" width="6.35" height="39.01" style="fill:#fff;opacity:0.1"></rect><rect x="171.03" y="138.56" width="3.17" height="39.01" style="fill:#FE7473"></rect><rect x="171.03" y="138.56" width="3.17" height="39.01" style="fill:#fff;opacity:0.30000000000000004"></rect><rect x="149" y="140.43" width="9.52" height="37.15" style="fill:#FE7473"></rect><rect x="149" y="140.43" width="9.52" height="37.15" style="fill:#fff;opacity:0.1"></rect><rect x="98.61" y="137.62" width="6.15" height="39.95" style="fill:#FE7473"></rect><rect x="98.61" y="137.62" width="6.15" height="39.95" style="fill:#fff;opacity:0.30000000000000004"></rect><rect x="93.85" y="137.62" width="4.76" height="39.95" style="fill:#FE7473"></rect><rect x="93.85" y="137.62" width="4.76" height="39.95" style="fill:#fff;opacity:0.2"></rect><rect x="104.76" y="138.56" width="9.52" height="39.01" style="fill:#FE7473"></rect><rect x="104.76" y="138.56" width="9.52" height="39.01" style="fill:#fff;opacity:0.1"></rect><rect x="114.28" y="138.56" width="4.76" height="39.01" style="fill:#FE7473"></rect><rect x="114.28" y="138.56" width="4.76" height="39.01" style="fill:#fff;opacity:0.6000000000000001"></rect><rect x="84.33" y="138.56" width="6.35" height="39.01" style="fill:#FE7473"></rect><rect x="84.33" y="138.56" width="6.35" height="39.01" style="fill:#fff;opacity:0.1"></rect><rect x="90.67" y="138.56" width="3.17" height="39.01" style="fill:#FE7473"></rect><rect x="90.67" y="138.56" width="3.17" height="39.01" style="fill:#fff;opacity:0.6000000000000001"></rect><rect x="153.52" y="194.19" width="4.65" height="39.84" transform="translate(311.69 428.22) rotate(180)" style="fill:#FE7473"></rect><rect x="153.52" y="194.19" width="4.65" height="39.84" transform="translate(311.69 428.22) rotate(180)" style="fill:#fff;opacity:0.1"></rect><rect x="158.17" y="194.19" width="4.65" height="39.84" transform="translate(320.99 428.22) rotate(180)" style="fill:#FE7473"></rect><rect x="158.17" y="194.19" width="4.65" height="39.84" transform="translate(320.99 428.22) rotate(180)" style="fill:#fff;opacity:0.4"></rect><rect x="144.22" y="196.99" width="9.3" height="37.04" transform="translate(297.75 431.02) rotate(180)" style="fill:#FE7473"></rect><rect x="144.22" y="196.99" width="9.3" height="37.04" transform="translate(297.75 431.02) rotate(180)" style="fill:#fff;opacity:0.6000000000000001"></rect><rect x="133.57" y="194.19" width="6.01" height="39.84" transform="translate(273.15 428.22) rotate(180)" style="fill:#FE7473"></rect><rect x="139.58" y="194.19" width="4.65" height="39.84" transform="translate(283.8 428.22) rotate(180)" style="fill:#FE7473"></rect><rect x="139.58" y="194.19" width="4.65" height="39.84" transform="translate(283.8 428.22) rotate(180)" style="opacity:0.1"></rect><rect x="98.31" y="194.19" width="6.01" height="39.84" transform="translate(202.63 428.22) rotate(180)" style="fill:#FE7473"></rect><rect x="98.31" y="194.19" width="6.01" height="39.84" transform="translate(202.63 428.22) rotate(180)" style="opacity:0.1"></rect><rect x="104.32" y="194.19" width="4.65" height="39.84" transform="translate(213.29 428.22) rotate(180)" style="fill:#FE7473"></rect><rect x="104.32" y="194.19" width="4.65" height="39.84" transform="translate(213.29 428.22) rotate(180)" style="fill:#fff;opacity:0.6000000000000001"></rect><rect x="118.27" y="194.19" width="6.01" height="39.84" transform="translate(242.54 428.22) rotate(180)" style="fill:#FE7473"></rect><rect x="118.27" y="194.19" width="6.01" height="39.84" transform="translate(242.54 428.22) rotate(180)" style="fill:#fff;opacity:0.6000000000000001"></rect><rect x="124.27" y="194.19" width="4.65" height="39.84" transform="translate(253.19 428.22) rotate(180)" style="fill:#FE7473"></rect><rect x="124.27" y="194.19" width="4.65" height="39.84" transform="translate(253.19 428.22) rotate(180)" style="opacity:0.1"></rect><rect x="89.02" y="195.14" width="9.3" height="38.89" transform="translate(187.33 429.16) rotate(180)" style="fill:#FE7473"></rect><rect x="89.02" y="195.14" width="9.3" height="38.89" transform="translate(187.33 429.16) rotate(180)" style="fill:#fff;opacity:0.1"></rect><rect x="84.37" y="195.14" width="4.65" height="38.89" transform="translate(173.39 429.16) rotate(180)" style="fill:#FE7473"></rect><rect x="84.37" y="195.14" width="4.65" height="38.89" transform="translate(173.39 429.16) rotate(180)" style="fill:#fff;opacity:0.6000000000000001"></rect><rect x="112.07" y="195.14" width="6.2" height="38.89" transform="translate(230.33 429.16) rotate(180)" style="fill:#FE7473"></rect><rect x="112.07" y="195.14" width="6.2" height="38.89" transform="translate(230.33 429.16) rotate(180)" style="fill:#fff;opacity:0.1"></rect><rect x="108.97" y="195.14" width="3.1" height="38.89" transform="translate(221.04 429.16) rotate(180)" style="fill:#FE7473"></rect><rect x="108.97" y="195.14" width="3.1" height="38.89" transform="translate(221.04 429.16) rotate(180)" style="fill:#fff;opacity:0.30000000000000004"></rect><rect x="124.27" y="196.99" width="9.3" height="37.04" transform="translate(257.84 431.02) rotate(180)" style="fill:#FE7473"></rect><rect x="124.27" y="196.99" width="9.3" height="37.04" transform="translate(257.84 431.02) rotate(180)" style="fill:#fff;opacity:0.1"></rect><rect x="176.76" y="194.19" width="6.01" height="39.84" transform="translate(359.53 428.22) rotate(180)" style="fill:#FE7473"></rect><rect x="176.76" y="194.19" width="6.01" height="39.84" transform="translate(359.53 428.22) rotate(180)" style="fill:#fff;opacity:0.1"></rect><rect x="182.77" y="194.19" width="4.65" height="39.84" transform="translate(370.19 428.22) rotate(180)" style="fill:#FE7473"></rect><rect x="182.77" y="194.19" width="4.65" height="39.84" transform="translate(370.19 428.22) rotate(180)" style="fill:#fff;opacity:0.2"></rect><rect x="167.47" y="195.14" width="9.3" height="38.89" transform="translate(344.23 429.16) rotate(180)" style="fill:#FE7473"></rect><rect x="167.47" y="195.14" width="9.3" height="38.89" transform="translate(344.23 429.16) rotate(180)" style="fill:#fff;opacity:0.30000000000000004"></rect><rect x="162.82" y="195.14" width="4.65" height="38.89" transform="translate(330.28 429.16) rotate(180)" style="fill:#FE7473"></rect><rect x="162.82" y="195.14" width="4.65" height="38.89" transform="translate(330.28 429.16) rotate(180)" style="fill:#fff;opacity:0.6000000000000001"></rect><rect x="190.52" y="195.14" width="6.2" height="38.89" transform="translate(387.23 429.16) rotate(180)" style="fill:#FE7473"></rect><rect x="190.52" y="195.14" width="6.2" height="38.89" transform="translate(387.23 429.16) rotate(180)" style="fill:#fff;opacity:0.1"></rect><rect x="187.42" y="195.14" width="3.1" height="38.89" transform="translate(377.93 429.16) rotate(180)" style="fill:#FE7473"></rect><rect x="187.42" y="195.14" width="3.1" height="38.89" transform="translate(377.93 429.16) rotate(180)" style="fill:#fff;opacity:0.6000000000000001"></rect><rect x="122.94" y="307.45" width="4.65" height="39.45" style="fill:#FE7473"></rect><rect x="122.94" y="307.45" width="4.65" height="39.45" style="fill:#fff;opacity:0.1"></rect><rect x="118.3" y="307.45" width="4.65" height="39.45" style="fill:#FE7473"></rect><rect x="118.3" y="307.45" width="4.65" height="39.45" style="fill:#fff;opacity:0.4"></rect><rect x="127.59" y="310.23" width="9.3" height="36.68" style="fill:#FE7473"></rect><rect x="127.59" y="310.23" width="9.3" height="36.68" style="fill:#fff;opacity:0.5"></rect><rect x="141.54" y="307.45" width="6.01" height="39.45" style="fill:#FE7473"></rect><rect x="136.89" y="307.45" width="4.65" height="39.45" style="fill:#FE7473"></rect><rect x="136.89" y="307.45" width="4.65" height="39.45" style="fill:#fff;opacity:0.6000000000000001"></rect><rect x="176.79" y="307.45" width="6.01" height="39.45" style="fill:#FE7473"></rect><rect x="176.79" y="307.45" width="6.01" height="39.45" style="fill:#fff;opacity:0.30000000000000004"></rect><rect x="172.14" y="307.45" width="4.65" height="39.45" style="fill:#FE7473"></rect><rect x="172.14" y="307.45" width="4.65" height="39.45" style="fill:#fff;opacity:0.6000000000000001"></rect><rect x="156.84" y="307.45" width="6.01" height="39.45" style="fill:#FE7473"></rect><rect x="156.84" y="307.45" width="6.01" height="39.45" style="fill:#fff;opacity:0.6000000000000001"></rect><rect x="152.19" y="307.45" width="4.65" height="39.45" style="fill:#FE7473"></rect><rect x="152.19" y="307.45" width="4.65" height="39.45" style="opacity:0.1"></rect><rect x="182.8" y="308.39" width="9.3" height="38.51" style="fill:#FE7473"></rect><rect x="182.8" y="308.39" width="9.3" height="38.51" style="fill:#fff;opacity:0.1"></rect><rect x="192.1" y="308.39" width="4.65" height="38.51" style="fill:#FE7473"></rect><rect x="192.1" y="308.39" width="4.65" height="38.51" style="fill:#fff;opacity:0.6000000000000001"></rect><rect x="162.85" y="308.39" width="6.2" height="38.51" style="fill:#FE7473"></rect><rect x="162.85" y="308.39" width="6.2" height="38.51" style="fill:#fff;opacity:0.1"></rect><rect x="169.05" y="308.39" width="3.1" height="38.51" style="fill:#FE7473"></rect><rect x="169.05" y="308.39" width="3.1" height="38.51" style="fill:#fff;opacity:0.30000000000000004"></rect><rect x="147.54" y="310.23" width="9.3" height="36.68" style="fill:#FE7473"></rect><rect x="147.54" y="310.23" width="9.3" height="36.68" style="fill:#fff;opacity:0.1"></rect><rect x="98.34" y="307.45" width="6.01" height="39.45" style="fill:#FE7473"></rect><rect x="98.34" y="307.45" width="6.01" height="39.45" style="opacity:0.1"></rect><rect x="93.7" y="307.45" width="4.65" height="39.45" style="fill:#FE7473"></rect><rect x="93.7" y="307.45" width="4.65" height="39.45" style="fill:#fff;opacity:0.2"></rect><rect x="104.35" y="308.39" width="9.3" height="38.51" style="fill:#FE7473"></rect><rect x="104.35" y="308.39" width="9.3" height="38.51" style="fill:#fff;opacity:0.1"></rect><rect x="113.65" y="308.39" width="4.65" height="38.51" style="fill:#FE7473"></rect><rect x="113.65" y="308.39" width="4.65" height="38.51" style="fill:#fff;opacity:0.6000000000000001"></rect><rect x="84.4" y="308.39" width="6.2" height="38.51" style="fill:#FE7473"></rect><rect x="84.4" y="308.39" width="6.2" height="38.51" style="fill:#fff;opacity:0.1"></rect><rect x="90.6" y="308.39" width="3.1" height="38.51" style="fill:#FE7473"></rect><rect x="90.6" y="308.39" width="3.1" height="38.51" style="fill:#fff;opacity:0.6000000000000001"></rect><rect x="155.86" y="249.96" width="4.81" height="40.49" transform="translate(316.52 540.42) rotate(180)" style="fill:#FE7473"></rect><rect x="155.86" y="249.96" width="4.81" height="40.49" transform="translate(316.52 540.42) rotate(180)" style="fill:#fff;opacity:0.1"></rect><rect x="160.66" y="249.96" width="4.81" height="40.49" transform="translate(326.13 540.42) rotate(180)" style="fill:#FE7473"></rect><rect x="160.66" y="249.96" width="4.81" height="40.49" transform="translate(326.13 540.42) rotate(180)" style="fill:#fff;opacity:0.4"></rect><rect x="146.25" y="252.81" width="9.61" height="37.65" transform="translate(302.11 543.26) rotate(180)" style="fill:#FE7473"></rect><rect x="146.25" y="252.81" width="9.61" height="37.65" transform="translate(302.11 543.26) rotate(180)" style="fill:#fff;opacity:0.6000000000000001"></rect><rect x="135.23" y="249.96" width="6.21" height="40.49" transform="translate(276.67 540.42) rotate(180)" style="fill:#FE7473"></rect><rect x="141.44" y="249.96" width="4.81" height="40.49" transform="translate(287.69 540.42) rotate(180)" style="fill:#FE7473"></rect><rect x="141.44" y="249.96" width="4.81" height="40.49" transform="translate(287.69 540.42) rotate(180)" style="opacity:0.1"></rect><rect x="98.78" y="249.96" width="6.21" height="40.49" transform="translate(203.78 540.42) rotate(180)" style="fill:#FE7473"></rect><rect x="98.78" y="249.96" width="6.21" height="40.49" transform="translate(203.78 540.42) rotate(180)" style="opacity:0.1"></rect><rect x="105" y="249.96" width="4.81" height="40.49" transform="translate(214.8 540.42) rotate(180)" style="fill:#FE7473"></rect><rect x="105" y="249.96" width="4.81" height="40.49" transform="translate(214.8 540.42) rotate(180)" style="fill:#fff;opacity:0.6000000000000001"></rect><rect x="119.41" y="249.96" width="6.21" height="40.49" transform="translate(245.03 540.42) rotate(180)" style="fill:#FE7473"></rect><rect x="119.41" y="249.96" width="6.21" height="40.49" transform="translate(245.03 540.42) rotate(180)" style="fill:#fff;opacity:0.6000000000000001"></rect><rect x="125.62" y="249.96" width="4.81" height="40.49" transform="translate(256.05 540.42) rotate(180)" style="fill:#FE7473"></rect><rect x="125.62" y="249.96" width="4.81" height="40.49" transform="translate(256.05 540.42) rotate(180)" style="opacity:0.1"></rect><rect x="89.17" y="250.92" width="9.61" height="39.53" transform="translate(187.96 541.38) rotate(180)" style="fill:#FE7473"></rect><rect x="89.17" y="250.92" width="9.61" height="39.53" transform="translate(187.96 541.38) rotate(180)" style="fill:#fff;opacity:0.1"></rect><rect x="84.37" y="250.92" width="4.81" height="39.53" transform="translate(173.54 541.38) rotate(180)" style="fill:#FE7473"></rect><rect x="84.37" y="250.92" width="4.81" height="39.53" transform="translate(173.54 541.38) rotate(180)" style="fill:#fff;opacity:0.6000000000000001"></rect><rect x="113" y="250.92" width="6.41" height="39.53" transform="translate(232.42 541.38) rotate(180)" style="fill:#FE7473"></rect><rect x="113" y="250.92" width="6.41" height="39.53" transform="translate(232.42 541.38) rotate(180)" style="fill:#fff;opacity:0.1"></rect><rect x="109.8" y="250.92" width="3.2" height="39.53" transform="translate(222.8 541.38) rotate(180)" style="fill:#FE7473"></rect><rect x="109.8" y="250.92" width="3.2" height="39.53" transform="translate(222.8 541.38) rotate(180)" style="fill:#fff;opacity:0.30000000000000004"></rect><rect x="125.62" y="252.81" width="9.61" height="37.65" transform="translate(260.85 543.26) rotate(180)" style="fill:#FE7473"></rect><rect x="125.62" y="252.81" width="9.61" height="37.65" transform="translate(260.85 543.26) rotate(180)" style="fill:#fff;opacity:0.1"></rect><rect x="179.89" y="249.96" width="6.21" height="40.49" transform="translate(365.98 540.42) rotate(180)" style="fill:#FE7473"></rect><rect x="179.89" y="249.96" width="6.21" height="40.49" transform="translate(365.98 540.42) rotate(180)" style="fill:#fff;opacity:0.2"></rect><rect x="186.1" y="249.96" width="4.81" height="40.49" transform="translate(377 540.42) rotate(180)" style="fill:#FE7473"></rect><rect x="186.1" y="249.96" width="4.81" height="40.49" transform="translate(377 540.42) rotate(180)" style="fill:#fff;opacity:0.4"></rect><rect x="170.27" y="250.92" width="9.61" height="39.53" transform="translate(350.16 541.38) rotate(180)" style="fill:#FE7473"></rect><rect x="170.27" y="250.92" width="9.61" height="39.53" transform="translate(350.16 541.38) rotate(180)" style="fill:#fff;opacity:0.1"></rect><rect x="165.47" y="250.92" width="4.81" height="39.53" transform="translate(335.74 541.38) rotate(180)" style="fill:#FE7473"></rect><rect x="165.47" y="250.92" width="4.81" height="39.53" transform="translate(335.74 541.38) rotate(180)" style="fill:#fff;opacity:0.6000000000000001"></rect><rect x="194.1" y="250.92" width="6.41" height="39.53" transform="translate(394.62 541.38) rotate(180)" style="fill:#FE7473"></rect><rect x="194.1" y="250.92" width="6.41" height="39.53" transform="translate(394.62 541.38) rotate(180)" style="fill:#fff;opacity:0.1"></rect><rect x="190.9" y="250.92" width="3.2" height="39.53" transform="translate(385.01 541.38) rotate(180)" style="fill:#FE7473"></rect><rect x="190.9" y="250.92" width="3.2" height="39.53" transform="translate(385.01 541.38) rotate(180)" style="fill:#fff;opacity:0.6000000000000001"></rect><rect x="79.17" y="350.83" width="66.34" height="54.98" style="fill:#FE7473"></rect><rect x="79.17" y="350.83" width="66.34" height="54.98" style="fill:#fff;opacity:0.2"></rect><rect x="145.51" y="350.83" width="59.9" height="54.98" style="fill:#FE7473"></rect><rect x="145.51" y="350.83" width="59.9" height="54.98" style="fill:#fff;opacity:0.1"></rect><path d="M76.7,121.13V408.29H214.33V121.13Zm132.68,5v51.49H81.65V126.08ZM81.65,290.46V239H209.38v51.5Zm127.73,5V346.9H81.65V295.41ZM81.65,234V182.52H209.38V234Zm0,169.33V351.85H209.38v51.49Z" style="fill:#FE7473"></path><path d="M76.7,121.13V408.29H214.33V121.13Zm132.68,5v51.49H81.65V126.08ZM81.65,290.46V239H209.38v51.5Zm127.73,5V346.9H81.65V295.41ZM81.65,234V182.52H209.38V234Zm0,169.33V351.85H209.38v51.49Z" style="fill:#fff;opacity:0.6000000000000001"></path><path d="M140.33,375.24h-2.24a3.09,3.09,0,0,0,0,6.17h2.24a3.09,3.09,0,0,0,0-6.17Z" style="fill:#FE7473"></path><path d="M140.33,375.24h-2.24a3.09,3.09,0,0,0,0,6.17h2.24a3.09,3.09,0,0,0,0-6.17Z" style="opacity:0.2"></path><path d="M143.41,378.32a3.08,3.08,0,1,1-3.08-3.08A3.08,3.08,0,0,1,143.41,378.32Z" style="fill:#FE7473"></path><path d="M153.31,375.24h-2.24a3.09,3.09,0,0,0,0,6.17h2.24a3.09,3.09,0,0,0,0-6.17Z" style="fill:#FE7473"></path><path d="M153.31,375.24h-2.24a3.09,3.09,0,0,0,0,6.17h2.24a3.09,3.09,0,0,0,0-6.17Z" style="opacity:0.2"></path><path d="M156.39,378.32a3.08,3.08,0,1,1-3.08-3.08A3.08,3.08,0,0,1,156.39,378.32Z" style="fill:#FE7473"></path></g><g id="freepik--Character--inject-31"><rect x="237.42" y="373.59" width="4.31" height="21.83" transform="translate(479.14 769.01) rotate(180)" style="fill:#263238"></rect><rect x="237.42" y="373.59" width="4.31" height="21.83" transform="translate(479.14 769.01) rotate(180)" style="fill:#fff;opacity:0.4"></rect><path d="M212.9,359.33h53.35l-23.95,12v3.31a.92.92,0,0,1-.92.92h-3.61a.93.93,0,0,1-.93-.92v-3.31Z" style="fill:#263238"></path><path d="M212.9,359.33h53.35l-23.95,12v3.31a.92.92,0,0,1-.92.92h-3.61a.93.93,0,0,1-.93-.92v-3.31Z" style="fill:#fff;opacity:0.6000000000000001"></path><path d="M208.61,404.43l28.23-9.49v-1a1.36,1.36,0,0,1,1.36-1.36h2.74a1.36,1.36,0,0,1,1.36,1.36v1l28.23,9.49a.7.7,0,0,1-.27,1.37l-30.69-2.39-30.68,2.39A.7.7,0,0,1,208.61,404.43Z" style="fill:#263238"></path><path d="M208.61,404.43l28.23-9.49v-1a1.36,1.36,0,0,1,1.36-1.36h2.74a1.36,1.36,0,0,1,1.36,1.36v1l28.23,9.49a.7.7,0,0,1-.27,1.37l-30.69-2.39-30.68,2.39A.7.7,0,0,1,208.61,404.43Z" style="fill:#fff;opacity:0.2"></path><path d="M238.4,405.8h2.34v-9.21a1.17,1.17,0,0,0-1.17-1.17h0a1.17,1.17,0,0,0-1.17,1.17Z" style="fill:#263238"></path><path d="M238.4,405.8h2.34v-9.21a1.17,1.17,0,0,0-1.17-1.17h0a1.17,1.17,0,0,0-1.17,1.17Z" style="fill:#fff;opacity:0.1"></path><polygon points="266.25 359.33 212.9 359.33 222.8 364.28 256.1 364.41 266.25 359.33" style="opacity:0.1"></polygon><path d="M272.51,408h0a1.5,1.5,0,0,0,1.5-1.5V403.8a1.5,1.5,0,0,0-1.5-1.5h0a1.51,1.51,0,0,0-1.5,1.5v2.66A1.5,1.5,0,0,0,272.51,408Z" style="fill:#263238"></path><path d="M206.63,408h0a1.5,1.5,0,0,0,1.5-1.5V403.8a1.5,1.5,0,0,0-1.5-1.5h0a1.5,1.5,0,0,0-1.5,1.5v2.66A1.5,1.5,0,0,0,206.63,408Z" style="fill:#263238"></path><path d="M239.57,408h0a1.5,1.5,0,0,0,1.5-1.5V403.8a1.5,1.5,0,0,0-1.5-1.5h0a1.5,1.5,0,0,0-1.5,1.5v2.66A1.5,1.5,0,0,0,239.57,408Z" style="fill:#263238"></path><path d="M269.56,345.31a12.39,12.39,0,0,1,4.45,9.9V360H205.13l-9.7-6.36v-4.75a13.24,13.24,0,0,1,13.24-13.24h42.4a13.19,13.19,0,0,1,7.11,2.07C261.06,339.52,266.85,343.21,269.56,345.31Z" style="fill:#263238"></path><path d="M269.56,345.31a12.39,12.39,0,0,1,4.45,9.9V360H205.13l-9.7-6.36v-4.75a13.24,13.24,0,0,1,13.24-13.24h42.4a13.19,13.19,0,0,1,7.11,2.07C261.06,339.52,266.85,343.21,269.56,345.31Z" style="fill:#fff;opacity:0.4"></path><path d="M205.13,360H274v-4.75A13.24,13.24,0,0,0,260.77,342h-42.4a13.24,13.24,0,0,0-13.24,13.24Z" style="fill:#FE7473"></path><path d="M205.13,360H274v-4.75A13.24,13.24,0,0,0,260.77,342h-42.4a13.24,13.24,0,0,0-13.24,13.24Z" style="fill:#fff;opacity:0.6000000000000001"></path><rect x="353.26" y="371.19" width="6.07" height="17.07" transform="translate(712.58 759.44) rotate(180)" style="fill:#263238"></rect><rect x="353.26" y="371.19" width="6.07" height="17.07" transform="translate(712.58 759.44) rotate(180)" style="fill:#fff;opacity:0.4"></rect><path d="M318.74,351.13h75.1L360.13,368v4.66a1.3,1.3,0,0,1-1.3,1.3h-5.08a1.3,1.3,0,0,1-1.3-1.3V368Z" style="fill:#263238"></path><path d="M318.74,351.13h75.1L360.13,368v4.66a1.3,1.3,0,0,1-1.3,1.3h-5.08a1.3,1.3,0,0,1-1.3-1.3V368Z" style="fill:#fff;opacity:0.6000000000000001"></path><path d="M312.71,402.91l39.74-13.36v-1.47a1.92,1.92,0,0,1,1.92-1.91h3.85a1.92,1.92,0,0,1,1.91,1.91v1.47l39.75,13.36a1,1,0,0,1-.4,1.93l-43.19-3.37-43.19,3.37A1,1,0,0,1,312.71,402.91Z" style="fill:#263238"></path><path d="M312.71,402.91l39.74-13.36v-1.47a1.92,1.92,0,0,1,1.92-1.91h3.85a1.92,1.92,0,0,1,1.91,1.91v1.47l39.75,13.36a1,1,0,0,1-.4,1.93l-43.19-3.37-43.19,3.37A1,1,0,0,1,312.71,402.91Z" style="fill:#fff;opacity:0.2"></path><path d="M354.64,390.23h3.3a0,0,0,0,1,0,0V403.4a1.44,1.44,0,0,1-1.44,1.44h-.42a1.44,1.44,0,0,1-1.44-1.44V390.23A0,0,0,0,1,354.64,390.23Z" transform="translate(712.58 795.07) rotate(180)" style="fill:#263238"></path><path d="M354.64,390.23h3.3a0,0,0,0,1,0,0V403.4a1.44,1.44,0,0,1-1.44,1.44h-.42a1.44,1.44,0,0,1-1.44-1.44V390.23A0,0,0,0,1,354.64,390.23Z" transform="translate(712.58 795.07) rotate(180)" style="fill:#fff;opacity:0.1"></path><polygon points="318.74 351.13 393.84 351.13 369.5 363.3 332.72 358.11 318.74 351.13" style="opacity:0.1"></polygon><rect x="400.55" y="399.92" width="4.22" height="7.96" rx="1.84" transform="translate(805.33 807.8) rotate(180)" style="fill:#263238"></rect><rect x="307.81" y="399.92" width="4.22" height="7.96" rx="1.84" transform="translate(619.84 807.8) rotate(180)" style="fill:#263238"></rect><rect x="354.18" y="399.92" width="4.22" height="7.96" rx="1.84" transform="translate(712.58 807.8) rotate(-180)" style="fill:#263238"></rect><rect x="416.57" y="279.2" width="4.7" height="18.65" transform="translate(805.72 618.89) rotate(-174.06)" style="fill:#263238"></rect><rect x="416.57" y="279.2" width="4.7" height="18.65" transform="translate(805.72 618.89) rotate(-174.06)" style="fill:#fff;opacity:0.5"></rect><rect x="395.04" y="276.96" width="4.7" height="18.65" transform="translate(763.01 612.18) rotate(-174.06)" style="fill:#263238"></rect><rect x="395.04" y="276.96" width="4.7" height="18.65" transform="translate(763.01 612.18) rotate(-174.06)" style="fill:#fff;opacity:0.5"></rect><path d="M395.6,235.74l44.59,4.65h0l-4.48,43.06-46.55-4.85a11.85,11.85,0,0,1-10.56-13l1.54-14.78C381.09,241.7,386.49,234.8,395.6,235.74Z" style="fill:#263238"></path><path d="M395.6,235.74l44.59,4.65h0l-4.48,43.06-46.55-4.85a11.85,11.85,0,0,1-10.56-13l1.54-14.78C381.09,241.7,386.49,234.8,395.6,235.74Z" style="fill:#fff;opacity:0.4"></path><path d="M358.77,315.44h0a10.88,10.88,0,0,0,12-9.7l.92-8.81a13,13,0,0,1,14.23-11.55l1.77.19L381.25,347l-9.84-1a4.85,4.85,0,0,1-4.32-5.32h0a8.8,8.8,0,0,0-5.51-9.1l-6.16-2.46a7.08,7.08,0,0,1-4.43-7.31h0A7.08,7.08,0,0,1,358.77,315.44Z" style="fill:#FE7473"></path><path d="M358.77,315.44h0a10.88,10.88,0,0,0,12-9.7l.92-8.81a13,13,0,0,1,14.23-11.55l1.77.19L381.25,347l-9.84-1a4.85,4.85,0,0,1-4.32-5.32h0a8.8,8.8,0,0,0-5.51-9.1l-6.16-2.46a7.08,7.08,0,0,1-4.43-7.31h0A7.08,7.08,0,0,1,358.77,315.44Z" style="fill:#fff;opacity:0.30000000000000004"></path><path d="M361.51,315.72h0a10.88,10.88,0,0,0,12-9.7l.91-8.8a13,13,0,0,1,14.24-11.55l1.77.18L384,347.24l-9.84-1a4.84,4.84,0,0,1-4.32-5.32h0a8.81,8.81,0,0,0-5.51-9.1l-6.16-2.45a7.07,7.07,0,0,1-4.43-7.31h0A7.09,7.09,0,0,1,361.51,315.72Z" style="fill:#FE7473"></path><path d="M361.51,315.72h0a10.88,10.88,0,0,0,12-9.7l.91-8.8a13,13,0,0,1,14.24-11.55l1.77.18L384,347.24l-9.84-1a4.84,4.84,0,0,1-4.32-5.32h0a8.81,8.81,0,0,0-5.51-9.1l-6.16-2.45a7.07,7.07,0,0,1-4.43-7.31h0A7.09,7.09,0,0,1,361.51,315.72Z" style="fill:#fff;opacity:0.1"></path><path d="M388.62,285.67,435,290.49l-6.39,61.39-54.42-5.67a4.84,4.84,0,0,1-4.32-5.32h0l4.54-43.67A13,13,0,0,1,388.62,285.67Z" style="fill:#263238"></path><path d="M388.62,285.67,435,290.49l-6.39,61.39-54.42-5.67a4.84,4.84,0,0,1-4.32-5.32h0l4.54-43.67A13,13,0,0,1,388.62,285.67Z" style="fill:#fff;opacity:0.4"></path><path d="M284.1,324.57,306,326.84a7.26,7.26,0,0,0,8-6.46h0a3.33,3.33,0,0,1,3.66-3l9,.94-3.62,34.81-53.52-5.57,1.26-12.11A12.23,12.23,0,0,1,284.1,324.57Z" style="fill:#FE7473"></path><path d="M284.1,324.57,306,326.84a7.26,7.26,0,0,0,8-6.46h0a3.33,3.33,0,0,1,3.66-3l9,.94-3.62,34.81-53.52-5.57,1.26-12.11A12.23,12.23,0,0,1,284.1,324.57Z" style="fill:#fff;opacity:0.30000000000000004"></path><path d="M317,320.69h0a3.34,3.34,0,0,1,3.67-3l24.51,2.55a3.34,3.34,0,0,1,3,3.67h0a7.25,7.25,0,0,0,6.47,8l1.23.13a12.23,12.23,0,0,1,10.9,13.43l-1.26,12.12-93-9.68,1.26-12.12a12.23,12.23,0,0,1,13.43-10.89L309,327.16A7.26,7.26,0,0,0,317,320.69Z" style="fill:#FE7473"></path><path d="M317,320.69h0a3.34,3.34,0,0,1,3.67-3l24.51,2.55a3.34,3.34,0,0,1,3,3.67h0a7.25,7.25,0,0,0,6.47,8l1.23.13a12.23,12.23,0,0,1,10.9,13.43l-1.26,12.12-93-9.68,1.26-12.12a12.23,12.23,0,0,1,13.43-10.89L309,327.16A7.26,7.26,0,0,0,317,320.69Z" style="fill:#fff;opacity:0.1"></path><path d="M336.69,330l1.23.13a12.23,12.23,0,0,1,10.9,13.43l-1.26,12.12-75.1-7.82,1.26-12.12a12.23,12.23,0,0,1,13.43-10.89L309,327.16Z" style="fill:#263238"></path><path d="M336.69,330l1.23.13a12.23,12.23,0,0,1,10.9,13.43l-1.26,12.12-75.1-7.82,1.26-12.12a12.23,12.23,0,0,1,13.43-10.89L309,327.16Z" style="fill:#fff;opacity:0.4"></path><path d="M395.58,326.39a7.08,7.08,0,0,1,7.77-6.31,10.89,10.89,0,0,0,12-9.7l.91-8.81A13,13,0,0,1,430.46,290l1.77.19v0c.33,0,.66,0,1,.06l1.76.18-6.39,61.39-2.74-.29h0l-9.84-1a4.84,4.84,0,0,1-4.32-5.32,8.8,8.8,0,0,0-5.51-9.1L400,333.7A7.08,7.08,0,0,1,395.58,326.39Z" style="fill:#FE7473"></path><path d="M395.58,326.39a7.08,7.08,0,0,1,7.77-6.31,10.89,10.89,0,0,0,12-9.7l.91-8.81A13,13,0,0,1,430.46,290l1.77.19v0c.33,0,.66,0,1,.06l1.76.18-6.39,61.39-2.74-.29h0l-9.84-1a4.84,4.84,0,0,1-4.32-5.32,8.8,8.8,0,0,0-5.51-9.1L400,333.7A7.08,7.08,0,0,1,395.58,326.39Z" style="fill:#fff;opacity:0.30000000000000004"></path><path d="M406.1,320.37h0a10.9,10.9,0,0,0,12-9.7l.91-8.81a13,13,0,0,1,14.24-11.55l1.76.18-6.39,61.39-9.84-1a4.83,4.83,0,0,1-4.31-5.32h0a8.81,8.81,0,0,0-5.51-9.1L402.75,334a7.08,7.08,0,0,1-4.42-7.31h0A7.07,7.07,0,0,1,406.1,320.37Z" style="fill:#fff;opacity:0.4"></path><path d="M392.64,303.06,366,288.73s-2.87,5.73-6.81,5.64-50.49-15.31-59.09-13.52c-4,.84-16,9-27.68,17.38l8.08,12.15a177.74,177.74,0,0,0,16-9c1-.66,1.94-1.3,2.76-1.92a8.62,8.62,0,0,1,9.4-.68l2.43,1.36c11.77,6.59,33.11,18.4,39.51,21.07,9,3.75,13.13,14.47,28.36,9S392.64,303.06,392.64,303.06Z" style="fill:#FE7473"></path><path d="M392.64,303.06,366,288.73s-2.87,5.73-6.81,5.64-50.49-15.31-59.09-13.52c-4,.84-16,9-27.68,17.38l8.08,12.15a177.74,177.74,0,0,0,16-9c1-.66,1.94-1.3,2.76-1.92a8.62,8.62,0,0,1,9.4-.68l2.43,1.36c11.77,6.59,33.11,18.4,39.51,21.07,9,3.75,13.13,14.47,28.36,9S392.64,303.06,392.64,303.06Z" style="opacity:0.1"></path><path d="M354.1,302.7c-6.31,1.58-32-1.31-43.38-2.71l.34.19c7.23,4.05,18.08,10.07,26.85,14.73l13.44-2.54,15.83-7-1.75-9.2S362.25,300.65,354.1,302.7Z" style="opacity:0.1"></path><path d="M399.45,308.79s-8.06,38.79-28.11,32.91c-18.07-5.29-41.52-14.25-61.57-20.82l-.68-.22a12.42,12.42,0,0,0-9.61.84l-.1,0c-6.11,3.14-21.22,8.23-57.32,11.06l-1.79-7.05S278.59,312,287,308.43s12-7.7,21.92-5.73,44.33,4.65,48.63,2.15c6.13-3.58,10.5-13.61,10.5-13.61Z" style="fill:#FE7473"></path><path d="M241.29,324.16l4.23,8.11a.73.73,0,0,1-.17.9l-5.84,4.91a1.23,1.23,0,0,1-1.73-.13,1.64,1.64,0,0,1-.14-.22c-1.48-3-2.67-5.63-4.58-9.27-2.24-4.3-2.19-2.94-4.89-8-1.63-3,1.54-5.38,2.38-4.18,3.83,5.52,5.93,5.2,9.23,6.38A2.91,2.91,0,0,1,241.29,324.16Z" style="fill:#263238"></path><path d="M385.66,237.09s-10.07-4-17.05,19.1l8.52,7.12Z" style="fill:#263238"></path><path d="M385.66,237.09s-10.07-4-17.05,19.1l8.52,7.12Z"></path><path d="M354.1,260.22s.84,27.25,10.51,25.78c7.35-1.12,12.46-25,12.46-25l-6.87-4.8-5.94,19.74S357,264,357.6,259.17C357.7,258.27,354.1,260.22,354.1,260.22Z" style="fill:#7f3e3b"></path><path d="M354.1,260.22s.84,27.25,10.51,25.78c7.35-1.12,12.46-25,12.46-25l-6.87-4.8-5.94,19.74S357,264,357.6,259.17C357.7,258.27,354.1,260.22,354.1,260.22Z" style="opacity:0.1"></path><path d="M362.09,291.67s8.67-12.52,10.35-24.6,7.44-30.29,13.22-30,35.19,9,34.92,17.09-20.68,56.4-20.68,56.4S378.8,298.56,362.09,291.67Z" style="fill:#263238"></path><path d="M361.09,237.72s5,3.11,6.21,21h-6.21Z" style="fill:#263238"></path><path d="M361.09,237.72s5,3.11,6.21,21h-6.21Z" style="fill:#fff;opacity:0.8"></path><path d="M363.91,249.68s2.21-11.55-6.65-14.17L355,238.6,360.82,250Z" style="fill:#263238"></path><path d="M363.91,249.68s2.21-11.55-6.65-14.17L355,238.6,360.82,250Z" style="fill:#fff;opacity:0.6000000000000001"></path><path d="M363.37,250.82s3.69-12.09,14.3-12.56l2.33,17L363.37,257Z" style="fill:#263238"></path><path d="M363.37,250.82s3.69-12.09,14.3-12.56l2.33,17L363.37,257Z" style="fill:#fff;opacity:0.7000000000000001"></path><path d="M363.91,249.68s4-8.67,14.84-7.32l1.27,4.23V250l-15.76,2.35Z" style="fill:#263238"></path><path d="M363.91,249.68s4-8.67,14.84-7.32l1.27,4.23V250l-15.76,2.35Z" style="fill:#fff;opacity:0.8"></path><path d="M365.29,249.23l2,21.38s2.47-5.82,17.1-2.06l-2.82-22.29S374.15,241.54,365.29,249.23Z" style="fill:#FE7473"></path><path d="M361.93,248.06s.22-9.76-7.83-10.66l3.91,26s4.68-.22,6.25,6.29Z" style="fill:#FE7473"></path><polygon points="367.3 270.61 365.29 249.23 361.93 248.06 364.26 269.74 367.3 270.61" style="fill:#FE7473"></polygon><polygon points="367.3 270.61 365.29 249.23 361.93 248.06 364.26 269.74 367.3 270.61" style="opacity:0.30000000000000004"></polygon><path d="M353.73,254.81l2-1.23a2.09,2.09,0,0,1,2.78.51l.57.77a2.08,2.08,0,0,1,.39,1.62l-1.22,6.87a2.07,2.07,0,0,1-1.32,1.59l-.93.35a1.22,1.22,0,0,1-1.62-.9L352.79,257A2.1,2.1,0,0,1,353.73,254.81Z" style="fill:#7f3e3b"></path><path d="M353.73,254.81l2-1.23a2.09,2.09,0,0,1,2.78.51l.57.77a2.08,2.08,0,0,1,.39,1.62l-1.22,6.87a2.07,2.07,0,0,1-1.32,1.59l-.93.35a1.22,1.22,0,0,1-1.62-.9L352.79,257A2.1,2.1,0,0,1,353.73,254.81Z" style="fill:#fff;opacity:0.1"></path><path d="M417,272.62s-11.14,22.92-16.33,23.27S381.84,275,381.84,275l-8.78-2.12a2,2,0,0,1-1.49-2.43l1.64-6.79a2,2,0,0,1,1.07-1.34l1.23-.6a2,2,0,0,1,2.55.66l6.25,8.6,15.14,11.43,8.06-13.59Z" style="fill:#7f3e3b"></path><path d="M415.65,253.1c1-1.41,4.57-5.19,6,3.58s-5.7,21.67-5.7,21.67l-11.31-7S412.5,257.4,415.65,253.1Z" style="fill:#263238"></path><path d="M415.65,253.1c1-1.41,4.57-5.19,6,3.58s-5.7,21.67-5.7,21.67l-11.31-7S412.5,257.4,415.65,253.1Z"></path><path d="M367.64,254.91l.34,3.23a20,20,0,0,1,12-1.35l-.38-3.33S375.14,251.44,367.64,254.91Z" style="fill:#fff;opacity:0.30000000000000004"></path><path d="M406.06,205.23s-4-10.68-1-13,1.7,4.3,1.7,4.3,1.92-8.25,4.75-7.48-1.48,8.42-1.48,8.42,6.63-7.13,8-5.41-4.47,7.13-4.47,7.13,6.79-3.89,8.08-2.07-6.1,4.48-6.1,4.48,7.65-.69,7.39,1.63-7.77,2-7.77,2,5.88.58,5,2.82-10.06-2.19-12.12-1Z" style="fill:#263238"></path><path d="M410.93,207a3.81,3.81,0,1,1-3.8-3.81A3.8,3.8,0,0,1,410.93,207Z" style="fill:#FE7473"></path><path d="M394,241.8l-.77,2.69,2.93,2.66,8.16-1.68,1.35-.68a2,2,0,0,1,1.33-.86c-3.18-3.45-1.8-10.48-.55-15.26l-10.62,7C396.34,238.62,396.45,240.6,394,241.8Z" style="fill:#7f3e3b"></path><path d="M403.93,230.3l-8.14,5.37a12.65,12.65,0,0,1,.3,3.13c4.06.6,7.28-2.52,9.27-5.24.19-1.21.44-2.39.7-3.5Z" style="opacity:0.2"></path><path d="M395,238.05a.8.8,0,0,1,.94,1c-.72,2.21-1.85,6.41-.13,6.71s8-2.29,10.7-3.5a1.42,1.42,0,0,1,1.88.74h0a2.14,2.14,0,0,1-.77,2.64l-9.09,6.05-4-5.24-4.78-.69,2.21-6.07a2.14,2.14,0,0,1,1.56-1.35Z" style="fill:#263238"></path><path d="M395,238.05a.8.8,0,0,1,.94,1c-.72,2.21-1.85,6.41-.13,6.71s8-2.29,10.7-3.5a1.42,1.42,0,0,1,1.88.74h0a2.14,2.14,0,0,1-.77,2.64l-9.09,6.05-4-5.24-4.78-.69,2.21-6.07a2.14,2.14,0,0,1,1.56-1.35Z"></path><path d="M410,217.68c-.77,8.21-.93,11.7-5.22,15.78-6.46,6.15-16.38,3.4-18.08-4.87-1.52-7.46,0-19.68,8.17-22.64a11.25,11.25,0,0,1,14.48,6.59A11.39,11.39,0,0,1,410,217.68Z" style="fill:#7f3e3b"></path><path d="M396.09,219.82c.11.66-.15,1.26-.58,1.33s-.87-.41-1-1.06.16-1.26.58-1.34S396,219.2,396.09,219.82Z" style="fill:#263238"></path><path d="M388.63,221.08c.11.67-.16,1.26-.58,1.33s-.88-.41-1-1.07.15-1.26.58-1.32S388.51,220.42,388.63,221.08Z" style="fill:#263238"></path><path d="M387.84,220l-1.66-.19S387.2,220.94,387.84,220Z" style="fill:#263238"></path><path d="M391.08,221.17a17.83,17.83,0,0,1-1.8,4.57,3,3,0,0,0,2.43.12Z" style="fill:#630f0f"></path><path d="M393.37,229.22a5.47,5.47,0,0,1-1,0,.19.19,0,0,1-.17-.21h0a.21.21,0,0,1,.22-.17,5.33,5.33,0,0,0,4.54-1.57.2.2,0,0,1,.28,0,.19.19,0,0,1,0,.27A5.46,5.46,0,0,1,393.37,229.22Z" style="fill:#263238"></path><path d="M399,216.62a.4.4,0,0,1-.46-.1,4.66,4.66,0,0,0-3.53-1.18.39.39,0,0,1-.44-.35.4.4,0,0,1,.34-.43h0a5.39,5.39,0,0,1,4.22,1.45.4.4,0,0,1-.05.55h0A.21.21,0,0,1,399,216.62Z" style="fill:#263238"></path><path d="M386,217.8a.44.44,0,0,1-.4-.05.41.41,0,0,1-.07-.56,3.86,3.86,0,0,1,3.23-1.65.39.39,0,0,1,.37.39v0a.38.38,0,0,1-.41.36h0a3.15,3.15,0,0,0-2.52,1.33A.4.4,0,0,1,386,217.8Z" style="fill:#263238"></path><path d="M395.33,218.82l-1.67-.19S394.67,219.69,395.33,218.82Z" style="fill:#263238"></path><path d="M391.69,205.28a1.53,1.53,0,0,0,1.36,2.31c3.37-.15,9,.49,10.11,6.13,1.63,8.16,5.43,10.18,5.43,10.18s14.51-9,.42-17.92C409,206,397.53,195.09,391.69,205.28Z" style="fill:#263238"></path><path d="M412,224.08a5.9,5.9,0,0,1-3.11,3.27c-1.91.82-3.14-.82-2.85-2.78.28-1.76,1.6-4.3,3.62-4.33a2.67,2.67,0,0,1,2.62,2.71A2.77,2.77,0,0,1,412,224.08Z" style="fill:#7f3e3b"></path><polygon points="406.75 229.92 409.07 226.47 411.5 229.82 406.75 229.92" style="fill:#FE7473"></polygon><path d="M406.51,204.65s-5.24-4.3-5.28-7.43S406.51,204.65,406.51,204.65Z" style="fill:#263238"></path><path d="M315.91,352.42l-2.75-.29L314.42,340a12.23,12.23,0,0,1,13.43-10.9l21.85,2.28a7.27,7.27,0,0,0,8-6.47h0a3.33,3.33,0,0,1,3.66-3l24.51,2.55h0l2.75.28a3.35,3.35,0,0,1,3,3.67,7.25,7.25,0,0,0,6.46,8l1.23.13A12.22,12.22,0,0,1,410.16,350L408.9,362.1l-2.75-.28h0L324,353.26l-8-.84Z" style="fill:#FE7473"></path><path d="M315.91,352.42l-2.75-.29L314.42,340a12.23,12.23,0,0,1,13.43-10.9l21.85,2.28a7.27,7.27,0,0,0,8-6.47h0a3.33,3.33,0,0,1,3.66-3l24.51,2.55h0l2.75.28a3.35,3.35,0,0,1,3,3.67,7.25,7.25,0,0,0,6.46,8l1.23.13A12.22,12.22,0,0,1,410.16,350L408.9,362.1l-2.75-.28h0L324,353.26l-8-.84Z" style="fill:#fff;opacity:0.30000000000000004"></path><path d="M360.41,325.22h0a3.34,3.34,0,0,1,3.67-3l24.51,2.55a3.35,3.35,0,0,1,3,3.67h0a7.25,7.25,0,0,0,6.46,8l1.23.13A12.22,12.22,0,0,1,410.16,350L408.9,362.1l-93-9.68,1.26-12.11a12.23,12.23,0,0,1,13.43-10.9l21.85,2.27A7.24,7.24,0,0,0,360.41,325.22Z" style="fill:#fff;opacity:0.30000000000000004"></path><path d="M433.75,283.24l2,.21,4.48-43.06h0c-9.11-.95-14.51,6-15.46,15.06l-1.54,14.78A11.84,11.84,0,0,0,433.75,283.24Z" style="fill:#FE7473"></path><path d="M433.75,283.24l2,.21,4.48-43.06h0c-9.11-.95-14.51,6-15.46,15.06l-1.54,14.78A11.84,11.84,0,0,0,433.75,283.24Z" style="fill:#fff;opacity:0.6000000000000001"></path><path d="M249.94,324.54s21.6-9.18,37.36-17.74l-8.61-13.07c-15.23,10.7-32.51,24.12-32.51,24.12Z" style="fill:#FE7473"></path><path d="M249.94,324.54s21.6-9.18,37.36-17.74l-8.61-13.07c-15.23,10.7-32.51,24.12-32.51,24.12Z" style="opacity:0.1"></path><path d="M248.15,316.39l3.69,8.2a.73.73,0,0,1-.23.88l-6,4.48a1.21,1.21,0,0,1-1.69-.23,1,1,0,0,1-.13-.22c-1.28-3-2.3-5.68-4-9.36-2-4.35-2-3-4.35-8.09-1.42-3.06,1.82-5.19,2.58-4,3.44,5.63,5.52,5.44,8.69,6.78A2.89,2.89,0,0,1,248.15,316.39Z" style="fill:#263238"></path></g></svg>